<?xml version="1.0" encoding="utf-8"?>
<!-- Generator: Adobe Illustrator 18.0.0, SVG Export Plug-In . SVG Version: 6.00 Build 0)  -->
<!DOCTYPE svg PUBLIC "-//W3C//DTD SVG 1.1//EN" "http://www.w3.org/Graphics/SVG/1.1/DTD/svg11.dtd">
<svg version="1.1" id="Слой_1" xmlns="http://www.w3.org/2000/svg" xmlns:xlink="http://www.w3.org/1999/xlink" x="0px" y="0px"
	 viewBox="250 247.9 12 16" enable-background="new 250 247.9 12 16" xml:space="preserve">
<g>
	<path fill="#FFFFFF" d="M254,254.6c0-0.4-0.3-0.7-0.7-0.7h-2.5c-0.4,0-0.7,0.3-0.7,0.7v2.5c0,0.4,0.3,0.7,0.7,0.7h2.5
		c0.4,0,0.7-0.3,0.7-0.7V254.6z"/>
	<path fill="#FFFFFF" d="M262,260.6c0-0.4-0.3-0.7-0.7-0.7h-2.5c-0.4,0-0.7,0.3-0.7,0.7v2.5c0,0.4,0.3,0.7,0.7,0.7h2.5
		c0.4,0,0.7-0.3,0.7-0.7V260.6z"/>
	<path fill="#FFFFFF" d="M262,254.6c0-0.4-0.3-0.7-0.7-0.7h-2.5c-0.4,0-0.7,0.3-0.7,0.7v2.5c0,0.4,0.3,0.7,0.7,0.7h2.5
		c0.4,0,0.7-0.3,0.7-0.7V254.6z"/>
	<path fill="#FFFFFF" d="M258,248.6v2.8c0,0.4,0.2,0.5,0.6,0.5h2.8c0.4,0,0.6-0.1,0.6-0.5v-2.8c0-0.4-0.2-0.7-0.6-0.7h-2.8
		C258.2,247.9,258,248.2,258,248.6z"/>
	<path fill="#FFFFFF" d="M254.5,254.9l2.7-3.1c0,0-0.2-0.3-0.2-0.3v-1.2l-2.9,3.4c0.3,0.2,0.9,0.5,0.9,0.9v0.4H254.5z"/>
	<path fill="#FFFFFF" d="M254.3,257.5c-0.1,0.3-0.4,0.6-0.7,0.8l3.4,3.5v-1.3L254.3,257.5z"/>
	<rect x="255" y="254.9" fill="#FFFFFF" width="2" height="2"/>
</g>
</svg>
