<?xml version="1.0" encoding="utf-8"?>
<!-- Generator: Adobe Illustrator 18.0.0, SVG Export Plug-In . SVG Version: 6.00 Build 0)  -->
<!DOCTYPE svg PUBLIC "-//W3C//DTD SVG 1.1//EN" "http://www.w3.org/Graphics/SVG/1.1/DTD/svg11.dtd">
<svg version="1.1" id="Слой_1" xmlns="http://www.w3.org/2000/svg" xmlns:xlink="http://www.w3.org/1999/xlink" x="0px" y="0px"
	 viewBox="305.4 262.1 16 24.5" enable-background="new 305.4 262.1 16 24.5" xml:space="preserve">
<g>
	<path fill="#FFFFFF" d="M320,279.6l0.2-0.2l-1.3-1.7l0.6-0.4l-0.1-0.2l-1.9-2.4l-0.5,0.4l-2.1-2.7l0.6-0.2l-0.6-2.2l-1,0.3l0.2,0.6
		l-0.3,0.1l-2.1-2.7c0.2-0.5,0.2-1,0.1-1.6c-0.3-1-1.1-1.7-2-1.9l-0.8-2.9l-2,0.5l0.8,2.8c-0.8,0.6-1.2,1.7-0.9,2.7
		c0.1,0.5,0.4,1,0.8,1.3l-1.1,8.3l-0.7-0.1l-0.4,3.3l0.2,0l0.4,0.1l-0.3,2.1l0.6,0.1l-0.2,3.3l0.5,0.1l0.6-3.3l0.7,0.1l0-0.2
		l1.2-9.3l3.2-0.9l6.1,7.9l0.4-0.3l1.1,1.5l1.4,0.5L321,281L320,279.6z M310.2,267.2c0.1,0.5-0.2,1.1-0.7,1.2
		c-0.5,0.1-1.1-0.2-1.2-0.7c-0.1-0.5,0.2-1.1,0.7-1.2C309.5,266.3,310.1,266.7,310.2,267.2z M309.7,270c0.1,0,0.1,0,0.2,0
		c0,0,0.1,0,0.1,0l1.4,1.9l-2.1,0.6L309.7,270z"/>
</g>
</svg>
