<?xml version="1.0" encoding="utf-8"?>
<!-- Generator: Adobe Illustrator 18.0.0, SVG Export Plug-In . SVG Version: 6.00 Build 0)  -->
<!DOCTYPE svg PUBLIC "-//W3C//DTD SVG 1.1//EN" "http://www.w3.org/Graphics/SVG/1.1/DTD/svg11.dtd">
<svg version="1.1" id="Слой_1" xmlns="http://www.w3.org/2000/svg" xmlns:xlink="http://www.w3.org/1999/xlink" x="0px" y="0px"
	 viewBox="248 248.9 16 14.1" enable-background="new 248 248.9 16 14.1" xml:space="preserve">
<path fill="#FFFFFF" d="M264,256c0-0.5-0.4-1-1.1-1.3c0-0.1,0-0.2,0-0.2c0-0.7-0.5-1.2-1.2-1.2c-0.5,0-0.9,0.3-1.1,0.7
	c-0.3-0.1-0.5-0.1-0.8-0.2c0.2-0.6,0.4-1.1,0.5-1.6c0.4-1.6,0.3-2.7-0.4-3.1c-0.2-0.1-0.3-0.1-0.5-0.1c-1,0-2.2,1.1-3.5,2.6
	c-0.1-0.2-0.3-0.3-0.4-0.4c0.1-0.2,0.2-0.4,0.2-0.6c0-0.7-0.5-1.2-1.2-1.2c-0.2,0-0.5,0.1-0.7,0.2c-0.5-0.4-1-0.6-1.4-0.6
	c-0.2,0-0.4,0-0.5,0.1c-0.7,0.4-0.8,1.5-0.4,3.1c0.1,0.5,0.3,1,0.5,1.6c-2.3,0.4-4.1,1.1-4.1,2.2c0,1.1,1.8,1.9,4.1,2.2
	c-0.8,2.2-1.1,4.1-0.1,4.7c0.2,0.1,0.3,0.1,0.5,0.1c0.3,0,0.7-0.1,1.1-0.4c0.2,0.1,0.4,0.2,0.7,0.2c0.7,0,1.2-0.5,1.2-1.2
	c0-0.2,0-0.4-0.1-0.5c0.2-0.2,0.4-0.4,0.6-0.7c1.2,1.5,2.5,2.6,3.5,2.6c0.2,0,0.4,0,0.5-0.1c1-0.6,0.7-2.5-0.1-4.7
	C262.2,257.9,264,257.1,264,256z M259.5,249.7c0.1,0,0.1,0,0.2,0c0.3,0.1,0.4,0.8,0.1,2.3c-0.1,0.5-0.3,1.1-0.5,1.6
	c-0.6-0.1-1.1-0.1-1.7-0.2c-0.3-0.5-0.6-1-1-1.4C257.7,250.5,258.8,249.7,259.5,249.7z M253.5,256.8c0.1,0.2,0.2,0.3,0.3,0.5
	c0.1,0.2,0.2,0.3,0.3,0.5c-0.3,0-0.7-0.1-1-0.1C253.2,257.4,253.4,257.1,253.5,256.8z M253.1,254.3c0.3,0,0.6-0.1,1-0.1
	c-0.1,0.2-0.2,0.3-0.3,0.5c-0.1,0.2-0.2,0.3-0.3,0.5C253.4,254.9,253.2,254.6,253.1,254.3z M253.9,256c0.2-0.3,0.3-0.6,0.5-0.9
	c0.2-0.3,0.4-0.6,0.5-0.9c0.3,0,0.7,0,1,0c0.4,0,0.7,0,1,0c0.2,0.3,0.4,0.6,0.5,0.9c0.2,0.3,0.3,0.6,0.5,0.9
	c-0.2,0.3-0.3,0.6-0.5,0.9c-0.2,0.3-0.4,0.6-0.5,0.9c-0.3,0-0.7,0-1,0c-0.4,0-0.7,0-1,0c-0.2-0.3-0.4-0.6-0.5-0.9
	C254.2,256.6,254.1,256.3,253.9,256z M258.2,257.3c0.1-0.2,0.2-0.3,0.3-0.5c0.1,0.3,0.3,0.6,0.4,0.9c-0.3,0-0.6,0.1-1,0.1
	C258,257.6,258.1,257.4,258.2,257.3z M258.5,255.2c-0.1-0.2-0.2-0.3-0.3-0.5c-0.1-0.2-0.2-0.3-0.3-0.5c0.3,0,0.7,0.1,1,0.1
	C258.8,254.6,258.6,254.9,258.5,255.2z M256,252.7c0.2,0.3,0.4,0.5,0.6,0.8c-0.2,0-0.4,0-0.6,0c-0.2,0-0.4,0-0.6,0
	C255.6,253.2,255.8,252.9,256,252.7z M252.4,249.7c0,0,0.1,0,0.2,0c0.2,0,0.6,0.1,1,0.4c0,0.1-0.1,0.3-0.1,0.4
	c0,0.7,0.5,1.2,1.2,1.2c0.2,0,0.3,0,0.5-0.1c0.2,0.2,0.3,0.4,0.5,0.5c-0.3,0.5-0.7,0.9-1,1.4c-0.6,0-1.2,0.1-1.7,0.2
	c-0.2-0.6-0.4-1.1-0.5-1.6C251.9,250.5,252.1,249.8,252.4,249.7z M248.7,256c0-0.5,1.4-1.2,3.7-1.6c0.2,0.5,0.5,1,0.7,1.6
	c-0.3,0.5-0.5,1-0.7,1.6C250.1,257.2,248.7,256.5,248.7,256z M254.9,260.7c-0.2-0.1-0.4-0.1-0.6-0.1c-0.7,0-1.2,0.5-1.2,1.2
	c0,0.1,0,0.3,0.1,0.4c-0.3,0.2-0.5,0.2-0.7,0.2c-0.1,0-0.1,0-0.2,0c-0.4-0.3-0.4-1.8,0.5-4c0.6,0.1,1.1,0.1,1.7,0.2
	c0.3,0.5,0.6,1,1,1.4C255.3,260.2,255.1,260.4,254.9,260.7z M255.4,258.5c0.2,0,0.4,0,0.6,0c0.2,0,0.4,0,0.6,0
	c-0.2,0.3-0.4,0.5-0.6,0.8C255.8,259.1,255.6,258.8,255.4,258.5z M259.6,262.3c0,0-0.1,0-0.2,0c-0.6,0-1.7-0.9-3-2.4
	c0.3-0.4,0.7-0.9,1-1.4c0.6,0,1.2-0.1,1.7-0.2C260,260.5,260.1,262.1,259.6,262.3z M259.6,257.6c-0.2-0.5-0.5-1-0.7-1.6
	c0.3-0.5,0.5-1.1,0.7-1.6c0.4,0.1,0.7,0.1,1,0.2c0.1,0.6,0.6,1,1.2,1c0.3,0,0.6-0.1,0.8-0.3c0.5,0.2,0.7,0.5,0.7,0.7
	C263.3,256.5,261.9,257.2,259.6,257.6z M256,257.2c0.7,0,1.2-0.5,1.2-1.2c0-0.7-0.5-1.2-1.2-1.2c-0.7,0-1.2,0.5-1.2,1.2
	C254.8,256.7,255.3,257.2,256,257.2z"/>
</svg>
