<?xml version="1.0" encoding="utf-8"?>
<!-- Generator: Adobe Illustrator 18.0.0, SVG Export Plug-In . SVG Version: 6.00 Build 0)  -->
<!DOCTYPE svg PUBLIC "-//W3C//DTD SVG 1.1//EN" "http://www.w3.org/Graphics/SVG/1.1/DTD/svg11.dtd">
<svg version="1.1" id="Слой_1" xmlns="http://www.w3.org/2000/svg" xmlns:xlink="http://www.w3.org/1999/xlink" x="0px" y="0px"
	 viewBox="248 248.4 16 15.2" enable-background="new 248 248.4 16 15.2" xml:space="preserve">
<path fill="#FFFFFF" d="M263.3,252.9l-3.6-3.6c-0.4-0.4-1.1-0.7-1.8-0.7c-0.2,0-0.5,0-0.7,0.1l-0.2,0c-0.4,0.1-0.8,0.3-1.2,0.6l0,0
	c-0.7-0.3-1.4-0.6-1.7-0.7l-0.2,0c-0.6-0.2-1.4,0-1.8,0.5l-3.6,3.6c-0.4,0.4-0.6,1.2-0.4,1.8l0.1,0.2c0.2,0.6,0.7,1.4,1.1,1.8
	l0.7,0.7c-0.2,0.5-0.1,1.1,0.3,1.4c0.2,0.2,0.4,0.3,0.7,0.4l0,0c-0.7,0.7-0.8,1.7-0.2,2.3c0.2,0.2,0.6,0.4,1,0.4
	c0.2,0,0.4,0,0.5-0.1c0,0.4,0.1,0.7,0.4,0.9c0.2,0.2,0.6,0.4,1,0.4c0.3,0,0.7-0.1,1-0.3c0,0.3,0.2,0.5,0.4,0.7
	c0.2,0.2,0.6,0.4,1,0.4c0.5,0,1-0.2,1.3-0.6l0.2-0.2c0.2,0,0.5,0,0.7-0.1l0.1-0.1c0.4-0.2,0.5-0.7,0.4-1.1l0.1-0.1
	c0.3,0.2,0.7,0.3,1.1,0.1l0.1-0.1c0.5-0.3,0.6-0.9,0.3-1.3l-0.1-0.1l0.1-0.1c0.3,0.2,0.7,0.2,1,0l0.1-0.1c0.5-0.3,0.6-0.9,0.3-1.3
	l0-0.1l0.1-0.1c0.3,0.2,0.7,0.2,1,0l0.1-0.1c0.5-0.3,0.6-0.9,0.3-1.3l-0.1-0.1c0.2-0.4,0.4-0.8,0.5-1.1l0.1-0.2
	C264.2,254.6,263.9,253.5,263.3,252.9z M263.3,255.2l-0.1,0.2c-0.1,0.2-0.2,0.4-0.3,0.7l-0.3-0.5c-0.3-0.5-0.9-0.6-1.3-0.3l-0.1,0.1
	c-0.5,0.3-0.6,0.9-0.3,1.3l0.7,1.1l0,0l-0.6-1c-0.3-0.5-0.9-0.6-1.3-0.3l-0.1,0.1c-0.5,0.3-0.6,0.9-0.3,1.3l0.9,1.5l0,0l-0.3-0.6
	c-0.3-0.5-0.9-0.6-1.3-0.3l-0.1,0.1c-0.5,0.3-0.6,0.9-0.3,1.3l0.6,1l0,0l-0.1-0.2c-0.3-0.5-0.9-0.6-1.3-0.3l-0.1,0.1
	c-0.5,0.3-0.6,0.9-0.3,1.3l0.3,0.5c0,0,0,0.1,0.1,0.1l-0.1,0.1c-0.3,0.3-0.6,0.4-0.9,0.4c-0.2,0-0.4-0.1-0.5-0.2
	c-0.2-0.2-0.2-0.4-0.2-0.6c0-0.1,0.1-0.2,0.1-0.4c0,0,0,0,0,0c0,0,0.1-0.1,0.1-0.1c0-0.1,0.1-0.1,0.1-0.2l2-2l-0.4-0.4l-2.8,2.8
	c-0.3,0.3-0.6,0.4-0.9,0.4c-0.2,0-0.4-0.1-0.5-0.2c-0.3-0.3-0.2-0.9,0.2-1.3l0.1-0.1l0,0l0.1-0.1l2.6-2.6l-0.4-0.4l-3.1,3.1
	c-0.3,0.3-0.6,0.4-0.9,0.4c-0.2,0-0.4-0.1-0.5-0.2c-0.3-0.3-0.2-0.9,0.2-1.3l3.1-3.1l-0.4-0.4l-2,2c-0.3,0.3-0.6,0.4-0.9,0.4
	c-0.2,0-0.4-0.1-0.5-0.2c-0.1-0.1-0.2-0.2-0.2-0.4c0-0.1,0-0.2,0-0.3c0,0,0,0,0,0c0,0,0-0.1,0-0.1c0,0,0-0.1,0.1-0.1c0,0,0,0,0-0.1
	c0,0,0-0.1,0.1-0.1c0,0,0,0,0,0c0,0,0.1-0.1,0.1-0.1l2-2l-0.2-0.2c-0.1-0.1-0.2-0.2-0.2-0.4l-1.2,0.7c-0.2,0.1-0.4,0.2-0.6,0.2
	c-0.4,0-0.7-0.2-0.9-0.5c-0.3-0.5-0.1-1.1,0.4-1.4l3.6-2c0.1,0.1,0.2,0.3,0.4,0.4l2.4,1.6c0.7,0.5,1.6,0.3,2-0.3
	c0.4-0.6,0.2-1.5-0.5-2l-1.7-1.2c0.3-0.2,0.6-0.3,0.8-0.4l0.2,0c0.1,0,0.3-0.1,0.5-0.1c0.5,0,1,0.2,1.4,0.5l3.6,3.6
	C263.3,253.8,263.5,254.6,263.3,255.2z"/>
</svg>
