<?xml version="1.0" encoding="utf-8"?>
<!-- Generator: Adobe Illustrator 18.0.0, SVG Export Plug-In . SVG Version: 6.00 Build 0)  -->
<!DOCTYPE svg PUBLIC "-//W3C//DTD SVG 1.1//EN" "http://www.w3.org/Graphics/SVG/1.1/DTD/svg11.dtd">
<svg version="1.1" id="Слой_1" xmlns="http://www.w3.org/2000/svg" xmlns:xlink="http://www.w3.org/1999/xlink" x="0px" y="0px"
	 viewBox="246.1 248 19.8 16" enable-background="new 246.1 248 19.8 16" xml:space="preserve">
<g>
	<path fill="#FFFFFF" d="M265.2,261.2l-4-2.6c-0.4-0.2-0.8-0.3-1.1-0.2c-0.1,0-0.3,0.1-0.4,0.1l-0.7-0.4c0.8-1.4,1.1-3.2,0.6-4.9
		c-0.9-3.7-4.6-6-8.3-5.1c-3.7,0.9-6,4.6-5.1,8.3c0.9,3.7,4.6,6,8.3,5.1c1.5-0.4,2.7-1.2,3.6-2.2l0.7,0.4c0,0.5,0.2,1.1,0.7,1.4
		l4,2.6c0.4,0.2,0.8,0.3,1.2,0.2c0.4-0.1,0.7-0.3,0.9-0.6C266.1,262.6,265.9,261.7,265.2,261.2z M254.3,260.3c-3,0.7-6-1.1-6.8-4.1
		c-0.7-3,1.1-6,4.1-6.8c3-0.7,6,1.1,6.8,4.1C259.2,256.6,257.3,259.6,254.3,260.3z"/>
	<g display="none">
		<path display="inline" fill="#1D71B8" d="M254.4,256.9h-2.8l-0.5,1h-1.8l2.7-6h2l2.7,6h-1.8L254.4,256.9z M253,252.5l-1,2.4h1.9
			L253,252.5z"/>
	</g>
</g>
</svg>
